# xmcd CD database file
#
# Track frame offsets:
#	150
#	35505
#	57241
#	87778
#	120770
#	152940
#	175991
#	214437
#	242457
#	268035
#	289425
#	310961
#
# Disc length: 4540 seconds
#
# Revision: 0
# Processed by: cddbd v1.5.2PL0 Copyright (c) Steve Scherf et al.
# Submitted via: CDex 1.70beta2
#
DISCID=aa11ba0c
DTITLE=Various Artist - Piano Jazz
DYEAR=2000
DGENRE=Jazz
TTITLE0=Oscar Peterson - On A Clear Day
TTITLE1=Red Garland Trio - A Foggy Day
TTITLE2=Bill Evans Trio - Waltz For Debby (Take 1)
TTITLE3=Ray Byant - Girl Talk
TTITLE4=Wynton Kelly - Whisper Not
TTITLE5=Bobby Timmons - Moanin'
TTITLE6=Tommy Flannagan 3 - Blue Bossa
TTITLE7=Phineas Newborn - Little Girl Blue
TTITLE8=Mose Allison - Groovin' High
TTITLE9=Hampton Hawes Trio - The Days Of Wine And Roses
TTITLE10=The Vince Guaraldi Trio - Generique
TTITLE11=Oscar Peterson and Count Basie - Lester Leaps In
EXTD=YEAR: 2000
EXTT0=
EXTT1=
EXTT2=
EXTT3=
EXTT4=
EXTT5=
EXTT6=
EXTT7=
EXTT8=
EXTT9=
EXTT10=
EXTT11=
PLAYORDER=
